<svg width="147" height="32" viewBox="0 0 147 32" fill="none" xmlns="http://www.w3.org/2000/svg">
<g clip-path="url(#clip0_360_49)">
<path fill-rule="evenodd" clip-rule="evenodd" d="M5.34797 14.5826H13.3779C14.659 14.5826 15.7444 13.7558 16.0967 12.512L17.4408 7.76471C17.6925 6.87513 17.532 5.99985 16.9799 5.2604C16.4278 4.52174 15.639 4.12459 14.7228 4.12459H14.0118C12.7305 4.12459 11.6453 4.95143 11.2929 6.19525L10.7479 8.11974C10.7432 8.13642 10.7392 8.15071 10.7353 8.16659C10.7298 8.18805 10.7235 8.2095 10.7164 8.23094L10.7157 8.23331C10.5324 8.81153 9.99604 9.23011 9.36214 9.23011C8.73925 9.23011 8.20994 8.82505 8.01805 8.26112C8.00546 8.22458 7.99446 8.18726 7.98502 8.14992C7.97794 8.12054 7.97086 8.09511 7.96299 8.06573L6.26578 2.07064C5.91345 0.826823 4.8281 0 3.54694 0H2.83598C1.91895 0 1.13011 0.397126 0.578788 1.13658C0.0266831 1.87605 -0.134543 2.75053 0.117916 3.64089L2.62991 12.512C2.98225 13.7558 4.06759 14.5826 5.34797 14.5826Z" fill="white"/>
<path fill-rule="evenodd" clip-rule="evenodd" d="M5.34783 17.4181H13.3777C14.6589 17.4181 15.7442 18.2441 16.0958 19.488L17.4399 24.2353C17.6915 25.1248 17.5303 26.0001 16.979 26.7395C16.4269 27.479 15.6381 27.8753 14.7218 27.8753H14.0109C12.7297 27.8753 11.6443 27.0494 11.292 25.8047L10.747 23.8802C10.7423 23.8635 10.7383 23.8493 10.7336 23.8326C10.7281 23.8111 10.7218 23.7897 10.7147 23.769L10.7139 23.7666C10.5307 23.1885 9.99432 22.7698 9.36042 22.7698C8.73754 22.7698 8.20824 23.175 8.01634 23.7389C8.00376 23.7754 7.99274 23.8127 7.98331 23.8509C7.97623 23.8802 7.96915 23.9056 7.96129 23.9343L6.26329 29.9294C5.91095 31.1731 4.82561 32 3.54523 32H2.83426C1.91802 32 1.1284 31.6029 0.577079 30.8642C0.0249742 30.1247 -0.136252 29.2495 0.116207 28.3599L2.62821 19.4888C2.98055 18.2449 4.06666 17.4181 5.34783 17.4181Z" fill="white"/>
<path d="M28.3154 26.2857V6.81144H32.4846V14.7383H39.8629V6.81144H44.032V26.2857H39.8629V18.2492H32.4846V26.2857H28.3154ZM54.4218 26.6149C49.9235 26.6149 47.0161 23.5703 47.0161 18.9349C47.0161 14.2994 49.9235 11.2549 54.3944 11.2549C58.7556 11.2549 61.5807 14.272 61.5807 19.2092V20.032H51.2675C51.3498 22.3634 52.5841 23.488 54.5041 23.488C55.8756 23.488 56.8355 22.912 57.247 21.7052L61.3887 21.952C60.5933 24.8869 57.9601 26.6149 54.4218 26.6149ZM57.3841 17.5086C57.2744 15.3692 56.095 14.2994 54.3944 14.2994C52.6664 14.2994 51.487 15.4789 51.2675 17.5086H57.3841ZM68.177 26.2857C65.7907 26.2857 64.337 25.1612 64.337 22.4457V6.81144H68.4513V22.0069C68.4513 22.8846 68.8628 23.2137 69.6308 23.2137H70.6182V26.2857H68.177ZM73.337 26.2857V11.584H77.4513V26.2857H73.337ZM73.2547 9.77373V6.4823H77.5062V9.77373H73.2547ZM87.6642 26.6149C83.1385 26.6149 80.2037 23.5703 80.2037 18.9349C80.2037 14.2994 83.1385 11.2549 87.6642 11.2549C91.5591 11.2549 94.4117 13.3943 94.8505 17.0149L90.5991 17.2069C90.3248 15.3966 89.2277 14.4366 87.6642 14.4366C85.6071 14.4366 84.4277 16.0823 84.4277 18.9349C84.4277 21.7874 85.6071 23.4606 87.6642 23.4606C89.2551 23.4606 90.3797 22.528 90.5991 20.5257L94.8505 20.6903C94.4391 24.3109 91.6414 26.6149 87.6642 26.6149ZM103.923 26.6149C99.4248 26.6149 96.4626 23.5977 96.4626 18.9349C96.4626 14.2994 99.4248 11.2549 103.923 11.2549C108.422 11.2549 111.384 14.2994 111.384 18.9349C111.384 23.5977 108.422 26.6149 103.923 26.6149ZM103.923 23.4606C105.98 23.4606 107.132 21.7874 107.132 18.9349C107.132 16.0823 105.98 14.4092 103.923 14.4092C101.866 14.4092 100.687 16.0823 100.687 18.9349C100.687 21.7874 101.866 23.4606 103.923 23.4606ZM119.318 26.6149C115.615 26.6149 113.311 23.6526 113.311 18.9349C113.311 14.2446 115.67 11.2549 119.318 11.2549C121.43 11.2549 122.993 12.16 123.761 13.6686V6.81144H127.875V26.2857H123.926L123.843 24.1189C123.021 25.7097 121.347 26.6149 119.318 26.6149ZM120.689 23.4606C122.664 23.4606 123.761 21.8972 123.761 18.9349C123.761 15.9452 122.664 14.4092 120.689 14.4092C118.769 14.4092 117.535 16.1372 117.535 18.9349C117.535 21.6777 118.797 23.4606 120.689 23.4606ZM138.047 26.6149C133.549 26.6149 130.641 23.5703 130.641 18.9349C130.641 14.2994 133.549 11.2549 138.019 11.2549C142.381 11.2549 145.206 14.272 145.206 19.2092V20.032H134.893C134.975 22.3634 136.209 23.488 138.129 23.488C139.501 23.488 140.461 22.912 140.872 21.7052L145.014 21.952C144.218 24.8869 141.585 26.6149 138.047 26.6149ZM141.009 17.5086C140.899 15.3692 139.72 14.2994 138.019 14.2994C136.291 14.2994 135.112 15.4789 134.893 17.5086H141.009Z" fill="white"/>
</g>
<defs>
<clipPath id="clip0_360_49">
<rect width="146.286" height="32" fill="white"/>
</clipPath>
</defs>
</svg>
